<?xml version="1.0" encoding="UTF-8" standalone="no"?>
<!DOCTYPE svg PUBLIC "-//W3C//DTD SVG 20010904//EN"
              "http://www.w3.org/TR/2001/REC-SVG-20010904/DTD/svg10.dtd">

<svg xmlns="http://www.w3.org/2000/svg"
     width="4.44444in" height="3.33333in"
     viewBox="0 0 400 300">
  <path id="Selection"
        fill="#000000" stroke="black" stroke-width="1"
        d="M 177.00,1.00
           C 181.02,4.08 183.63,15.88 185.33,21.00
             185.33,21.00 202.00,70.00 202.00,70.00
             202.00,70.00 221.00,35.00 221.00,35.00
             221.00,35.00 228.00,75.00 228.00,75.00
             228.00,75.00 262.40,33.00 262.40,33.00
             262.40,33.00 281.00,12.00 281.00,12.00
             281.00,12.00 259.00,94.00 259.00,94.00
             259.00,94.00 324.00,72.66 324.00,72.66
             324.00,72.66 359.00,62.00 359.00,62.00
             354.05,68.76 343.93,74.79 337.00,79.88
             337.00,79.88 289.00,115.00 289.00,115.00
             289.00,115.00 333.00,109.95 333.00,109.95
             333.00,109.95 351.00,109.00 351.00,109.00
             351.00,109.00 312.00,132.00 312.00,132.00
             312.00,132.00 355.00,132.00 355.00,132.00
             355.00,132.00 372.00,133.00 372.00,133.00
             372.00,133.00 399.00,134.00 399.00,134.00
             399.00,134.00 376.00,141.00 376.00,141.00
             376.00,141.00 333.00,153.12 333.00,153.12
             333.00,153.12 304.00,162.00 304.00,162.00
             304.00,162.00 360.00,195.58 360.00,195.58
             365.52,199.00 379.98,206.20 383.00,211.00
             383.00,211.00 315.00,196.79 315.00,196.79
             315.00,196.79 291.00,192.00 291.00,192.00
             291.00,192.00 331.00,230.00 331.00,230.00
             331.00,230.00 278.00,214.00 278.00,214.00
             278.00,214.00 307.00,254.00 307.00,254.00
             307.00,254.00 319.00,272.00 319.00,272.00
             319.00,272.00 286.00,251.69 286.00,251.69
             286.00,251.69 229.00,215.00 229.00,215.00
             229.00,215.00 226.91,244.00 226.91,244.00
             226.91,244.00 224.17,279.00 224.17,279.00
             224.17,279.00 222.00,300.00 222.00,300.00
             222.00,300.00 210.00,266.00 210.00,266.00
             210.00,266.00 202.00,240.00 202.00,240.00
             197.46,244.54 190.99,259.52 187.75,266.00
             185.53,270.45 184.42,274.43 180.00,277.00
             180.00,277.00 175.41,247.00 175.41,247.00
             175.41,247.00 171.00,225.00 171.00,225.00
             167.33,231.95 149.16,253.31 143.00,261.00
             137.45,267.94 125.27,284.29 119.00,289.00
             119.00,289.00 140.00,201.00 140.00,201.00
             140.00,201.00 80.00,224.42 80.00,224.42
             80.00,224.42 39.00,240.00 39.00,240.00
             39.00,240.00 62.00,223.33 62.00,223.33
             62.00,223.33 110.00,192.00 110.00,192.00
             110.00,192.00 76.00,195.72 76.00,195.72
             76.00,195.72 49.00,199.00 49.00,199.00
             51.80,194.64 61.10,191.55 66.00,189.31
             66.00,189.31 109.00,170.00 109.00,170.00
             109.00,170.00 55.00,169.00 55.00,169.00
             55.00,169.00 40.00,168.00 40.00,168.00
             40.00,168.00 1.00,168.00 1.00,168.00
             1.00,168.00 10.00,163.33 10.00,163.33
             10.00,163.33 28.00,157.58 28.00,157.58
             28.00,157.58 68.00,144.67 68.00,144.67
             68.00,144.67 93.00,136.00 93.00,136.00
             93.00,136.00 43.00,106.60 43.00,106.60
             36.22,102.58 21.67,95.34 17.00,90.00
             17.00,90.00 41.00,94.58 41.00,94.58
             41.00,94.58 95.00,106.00 95.00,106.00
             89.15,100.17 74.11,88.27 71.00,82.00
             71.00,82.00 86.00,86.66 86.00,86.66
             86.00,86.66 132.00,101.00 132.00,101.00
             132.00,101.00 96.12,51.00 96.12,51.00
             96.12,51.00 81.00,29.00 81.00,29.00
             81.00,29.00 101.00,40.95 101.00,40.95
             101.00,40.95 142.00,67.67 142.00,67.67
             142.00,67.67 167.00,83.00 167.00,83.00
             167.00,83.00 177.00,1.00 177.00,1.00 Z
           M 133.00,101.00
           C 133.00,101.00 132.00,101.00 132.00,101.00
             132.00,101.00 133.00,102.00 133.00,102.00
             133.00,102.00 133.00,101.00 133.00,101.00 Z" />
</svg>
